<?xml version="1.0" encoding="UTF-8"?> <svg xmlns="http://www.w3.org/2000/svg" xmlns:xlink="http://www.w3.org/1999/xlink" width="2000" zoomAndPan="magnify" viewBox="0 0 1500 1499.999933" height="2000" preserveAspectRatio="xMidYMid meet" version="1.0"><defs><g></g><clipPath id="28310ba473"><path d="M 110 0.921875 L 1239.199219 0.921875 L 1239.199219 626 L 110 626 Z M 110 0.921875 " clip-rule="nonzero"></path></clipPath><clipPath id="20fbb4987e"><rect x="0" width="1130" y="0" height="626"></rect></clipPath><clipPath id="9b76adf2ec"><path d="M 0.800781 625 L 1144 625 L 1144 1300.519531 L 0.800781 1300.519531 Z M 0.800781 625 " clip-rule="nonzero"></path></clipPath><clipPath id="0adad26aca"><rect x="0" width="1144" y="0" height="676"></rect></clipPath><clipPath id="84713b6c3b"><rect x="0" width="1240" y="0" height="1301"></rect></clipPath></defs><g transform="matrix(1, 0, 0, 1, 130, 145)"><g clip-path="url(#84713b6c3b)"><g clip-path="url(#28310ba473)"><g transform="matrix(1, 0, 0, 1, 110, 0.000000000000113687)"><g clip-path="url(#20fbb4987e)"><g fill="#545454" fill-opacity="1"><g transform="translate(134.3365, 477.638559)"><g><path d="M -64.40625 -42.5 L -37.03125 -97.609375 L 31.5625 -63.53125 L 25.828125 -52 L -33.171875 -81.3125 L -49.078125 -49.28125 L 9.921875 -19.96875 L 4.1875 -8.421875 Z M -64.40625 -42.5 "></path></g></g></g><g fill="#545454" fill-opacity="1"><g transform="translate(165.511003, 413.062021)"><g><path d="M -27.734375 -27.015625 C -31.691406 -29.941406 -35.175781 -33.382812 -38.1875 -37.34375 C -41.207031 -41.300781 -43.425781 -45.609375 -44.84375 -50.265625 C -46.269531 -54.921875 -46.578125 -59.738281 -45.765625 -64.71875 C -44.960938 -69.707031 -42.753906 -74.648438 -39.140625 -79.546875 C -35.523438 -84.429688 -31.453125 -87.988281 -26.921875 -90.21875 C -22.390625 -92.457031 -17.691406 -93.578125 -12.828125 -93.578125 C -7.960938 -93.578125 -3.191406 -92.71875 1.484375 -91 C 6.160156 -89.289062 10.476562 -86.972656 14.4375 -84.046875 C 18.394531 -81.117188 21.875 -77.671875 24.875 -73.703125 C 27.882812 -69.742188 30.117188 -65.421875 31.578125 -60.734375 C 33.035156 -56.054688 33.363281 -51.222656 32.5625 -46.234375 C 31.757812 -41.242188 29.550781 -36.304688 25.9375 -31.421875 C 22.320312 -26.523438 18.242188 -22.960938 13.703125 -20.734375 C 9.171875 -18.503906 4.457031 -17.398438 -0.4375 -17.421875 C -5.34375 -17.453125 -10.128906 -18.328125 -14.796875 -20.046875 C -19.460938 -21.765625 -23.773438 -24.085938 -27.734375 -27.015625 Z M -19.90625 -37.59375 C -17.8125 -36.039062 -15.238281 -34.523438 -12.1875 -33.046875 C -9.144531 -31.578125 -5.890625 -30.550781 -2.421875 -29.96875 C 1.042969 -29.382812 4.457031 -29.648438 7.8125 -30.765625 C 11.164062 -31.890625 14.21875 -34.316406 16.96875 -38.046875 C 19.726562 -41.773438 21.148438 -45.40625 21.234375 -48.9375 C 21.328125 -52.46875 20.585938 -55.804688 19.015625 -58.953125 C 17.441406 -62.097656 15.503906 -64.910156 13.203125 -67.390625 C 10.898438 -69.878906 8.703125 -71.898438 6.609375 -73.453125 C 4.503906 -75.003906 1.945312 -76.5 -1.0625 -77.9375 C -4.070312 -79.382812 -7.3125 -80.398438 -10.78125 -80.984375 C -14.25 -81.566406 -17.65625 -81.300781 -21 -80.1875 C -24.351562 -79.070312 -27.410156 -76.648438 -30.171875 -72.921875 C -32.921875 -69.191406 -34.34375 -65.554688 -34.4375 -62.015625 C -34.53125 -58.484375 -33.789062 -55.144531 -32.21875 -52 C -30.644531 -48.851562 -28.722656 -46.050781 -26.453125 -43.59375 C -24.191406 -41.144531 -22.007812 -39.144531 -19.90625 -37.59375 Z M -19.90625 -37.59375 "></path></g></g></g><g fill="#545454" fill-opacity="1"><g transform="translate(208.61663, 354.124888)"><g><path d="M -37 -70.671875 L -13.921875 -46.671875 L -13.3125 -93.4375 L -1.53125 -104.78125 L -2.828125 -63.9375 L 52.8125 -50.78125 L 41.75 -40.125 L -3.1875 -51.171875 L -3.984375 -36.328125 L 16.078125 -15.453125 L 6.78125 -6.515625 L -46.296875 -61.734375 Z M -37 -70.671875 "></path></g></g></g><g fill="#545454" fill-opacity="1"><g transform="translate(255.064682, 308.078048)"><g><path d="M -12.734375 -55.765625 L -22.546875 -49.09375 C -27.703125 -56.675781 -28.988281 -63.710938 -26.40625 -70.203125 C -23.820312 -76.703125 -18.617188 -82.609375 -10.796875 -87.921875 C -9.753906 -88.628906 -8.226562 -89.519531 -6.21875 -90.59375 C -4.21875 -91.664062 -1.917969 -92.613281 0.671875 -93.4375 C 3.265625 -94.269531 5.988281 -94.726562 8.84375 -94.8125 C 11.707031 -94.894531 14.515625 -94.289062 17.265625 -93 C 20.015625 -91.71875 22.503906 -89.441406 24.734375 -86.171875 L 49.328125 -50.03125 C 51.117188 -47.394531 53.164062 -46.859375 55.46875 -48.421875 C 55.957031 -48.753906 56.476562 -49.195312 57.03125 -49.75 C 57.582031 -50.300781 58.113281 -50.8125 58.625 -51.28125 L 63.921875 -43.5 C 63.203125 -42.65625 62.5 -41.789062 61.8125 -40.90625 C 61.125 -40.03125 60.179688 -39.1875 58.984375 -38.375 C 55.867188 -36.257812 53.207031 -35.148438 51 -35.046875 C 48.800781 -34.953125 46.914062 -35.453125 45.34375 -36.546875 C 43.78125 -37.648438 42.378906 -38.941406 41.140625 -40.421875 C 40.765625 -38.066406 40.117188 -35.410156 39.203125 -32.453125 C 38.285156 -29.492188 36.769531 -26.476562 34.65625 -23.40625 C 32.550781 -20.34375 29.421875 -17.398438 25.265625 -14.578125 C 19.453125 -10.609375 13.570312 -9.050781 7.625 -9.90625 C 1.675781 -10.757812 -3.175781 -13.941406 -6.9375 -19.453125 C -8.226562 -21.367188 -9.367188 -23.5625 -10.359375 -26.03125 C -11.347656 -28.507812 -11.757812 -31.296875 -11.59375 -34.390625 C -11.425781 -37.484375 -10.210938 -40.847656 -7.953125 -44.484375 C -5.703125 -48.128906 -1.917969 -52.050781 3.390625 -56.25 C 8.660156 -60.539062 12.335938 -63.800781 14.421875 -66.03125 C 16.515625 -68.269531 17.492188 -70.21875 17.359375 -71.875 C 17.234375 -73.53125 16.4375 -75.4375 14.96875 -77.59375 C 10.351562 -84.375 3.132812 -84.425781 -6.6875 -77.75 C -10.675781 -75.039062 -13.203125 -72.328125 -14.265625 -69.609375 C -15.335938 -66.898438 -15.5625 -64.351562 -14.9375 -61.96875 C -14.3125 -59.59375 -13.578125 -57.523438 -12.734375 -55.765625 Z M 31.421875 -53.421875 L 24.328125 -63.828125 C 24.046875 -63.054688 23.519531 -62.117188 22.75 -61.015625 C 21.988281 -59.910156 20.597656 -58.347656 18.578125 -56.328125 C 16.566406 -54.316406 13.554688 -51.539062 9.546875 -48 C 7.941406 -46.550781 6.273438 -44.832031 4.546875 -42.84375 C 2.816406 -40.851562 1.632812 -38.644531 1 -36.21875 C 0.375 -33.800781 0.984375 -31.238281 2.828125 -28.53125 C 5.160156 -25.101562 7.960938 -23.039062 11.234375 -22.34375 C 14.503906 -21.65625 18.09375 -22.644531 22 -25.3125 C 25.351562 -27.59375 28.070312 -30.375 30.15625 -33.65625 C 32.238281 -36.9375 33.445312 -40.347656 33.78125 -43.890625 C 34.113281 -47.441406 33.328125 -50.617188 31.421875 -53.421875 Z M 31.421875 -53.421875 "></path></g></g></g><g fill="#545454" fill-opacity="1"><g transform="translate(315.147049, 266.765431)"><g><path d="M -5.859375 -57.53125 L -17.03125 -52.40625 C -17.8125 -54.800781 -18.25 -57.488281 -18.34375 -60.46875 C -18.4375 -63.457031 -17.941406 -66.550781 -16.859375 -69.75 C -15.773438 -72.957031 -13.867188 -76.035156 -11.140625 -78.984375 C -8.410156 -81.941406 -4.632812 -84.53125 0.1875 -86.75 C 5.457031 -89.164062 10.46875 -90.398438 15.21875 -90.453125 C 19.976562 -90.503906 24.144531 -89.519531 27.71875 -87.5 C 31.289062 -85.476562 33.925781 -82.625 35.625 -78.9375 C 37.707031 -74.375 38.019531 -70.269531 36.5625 -66.625 C 35.101562 -62.976562 33.109375 -60.097656 30.578125 -57.984375 C 33.015625 -58.253906 35.640625 -58.210938 38.453125 -57.859375 C 41.265625 -57.503906 43.976562 -56.492188 46.59375 -54.828125 C 49.21875 -53.171875 51.4375 -50.367188 53.25 -46.421875 C 55.21875 -42.117188 55.632812 -37.898438 54.5 -33.765625 C 53.375 -29.640625 51.066406 -25.820312 47.578125 -22.3125 C 44.097656 -18.800781 39.8125 -15.878906 34.71875 -13.546875 C 27.09375 -10.046875 20.660156 -8.445312 15.421875 -8.75 C 10.191406 -9.0625 5.835938 -10.625 2.359375 -13.4375 C -1.105469 -16.257812 -4.007812 -19.625 -6.34375 -23.53125 L 5.125 -28.78125 C 7.851562 -24.195312 11.09375 -21.460938 14.84375 -20.578125 C 18.601562 -19.703125 23.507812 -20.648438 29.5625 -23.421875 C 33.851562 -25.398438 37.195312 -28.054688 39.59375 -31.390625 C 42 -34.722656 42.273438 -38.40625 40.421875 -42.4375 C 38.535156 -46.5625 35.753906 -48.867188 32.078125 -49.359375 C 28.410156 -49.847656 24.425781 -49.101562 20.125 -47.125 L 13.15625 -43.9375 L 8.921875 -53.15625 L 15.21875 -56.046875 C 20.3125 -58.378906 23.398438 -60.910156 24.484375 -63.640625 C 25.566406 -66.367188 25.300781 -69.488281 23.6875 -73 C 22.519531 -75.53125 20.875 -77.210938 18.75 -78.046875 C 16.625 -78.890625 14.320312 -79.109375 11.84375 -78.703125 C 9.363281 -78.304688 7.03125 -77.609375 4.84375 -76.609375 C -0.0703125 -74.347656 -3.34375 -71.703125 -4.96875 -68.671875 C -6.601562 -65.640625 -6.898438 -61.925781 -5.859375 -57.53125 Z M -5.859375 -57.53125 "></path></g></g></g><g fill="#545454" fill-opacity="1"><g transform="translate(373.539431, 238.835562)"><g><path d="M 6.296875 -56.859375 L -5.171875 -53.78125 C -7.554688 -62.632812 -6.457031 -69.703125 -1.875 -74.984375 C 2.695312 -80.265625 9.550781 -84.128906 18.6875 -86.578125 C 19.90625 -86.910156 21.640625 -87.253906 23.890625 -87.609375 C 26.140625 -87.960938 28.625 -88.101562 31.34375 -88.03125 C 34.070312 -87.96875 36.800781 -87.503906 39.53125 -86.640625 C 42.257812 -85.773438 44.707031 -84.28125 46.875 -82.15625 C 49.050781 -80.039062 50.648438 -77.070312 51.671875 -73.25 L 63.03125 -31.03125 C 63.851562 -27.957031 65.613281 -26.785156 68.3125 -27.515625 C 68.875 -27.660156 69.507812 -27.90625 70.21875 -28.25 C 70.925781 -28.59375 71.59375 -28.894531 72.21875 -29.15625 L 74.65625 -20.078125 C 73.707031 -19.515625 72.765625 -18.929688 71.828125 -18.328125 C 70.890625 -17.722656 69.722656 -17.234375 68.328125 -16.859375 C 64.691406 -15.878906 61.8125 -15.707031 59.6875 -16.34375 C 57.570312 -16.988281 55.957031 -18.082031 54.84375 -19.625 C 53.726562 -21.175781 52.820312 -22.851562 52.125 -24.65625 C 51.007812 -22.550781 49.535156 -20.253906 47.703125 -17.765625 C 45.867188 -15.273438 43.445312 -12.925781 40.4375 -10.71875 C 37.4375 -8.519531 33.507812 -6.765625 28.65625 -5.453125 C 21.851562 -3.628906 15.785156 -4.097656 10.453125 -6.859375 C 5.117188 -9.617188 1.585938 -14.21875 -0.140625 -20.65625 C -0.742188 -22.894531 -1.101562 -25.34375 -1.21875 -28 C -1.34375 -30.664062 -0.816406 -33.429688 0.359375 -36.296875 C 1.535156 -39.160156 3.785156 -41.941406 7.109375 -44.640625 C 10.441406 -47.335938 15.300781 -49.789062 21.6875 -52 C 28.0625 -54.320312 32.601562 -56.195312 35.3125 -57.625 C 38.03125 -59.050781 39.597656 -60.566406 40.015625 -62.171875 C 40.441406 -63.785156 40.316406 -65.851562 39.640625 -68.375 C 37.503906 -76.300781 30.703125 -78.722656 19.234375 -75.640625 C 14.578125 -74.390625 11.296875 -72.65625 9.390625 -70.4375 C 7.492188 -68.226562 6.445312 -65.898438 6.25 -63.453125 C 6.0625 -61.003906 6.078125 -58.804688 6.296875 -56.859375 Z M 47.234375 -40.140625 L 43.953125 -52.296875 C 43.429688 -51.648438 42.625 -50.929688 41.53125 -50.140625 C 40.4375 -49.359375 38.609375 -48.34375 36.046875 -47.09375 C 33.492188 -45.851562 29.738281 -44.222656 24.78125 -42.203125 C 22.800781 -41.367188 20.664062 -40.289062 18.375 -38.96875 C 16.082031 -37.65625 14.242188 -35.960938 12.859375 -33.890625 C 11.472656 -31.816406 11.203125 -29.195312 12.046875 -26.03125 C 13.128906 -22.019531 15.097656 -19.148438 17.953125 -17.421875 C 20.816406 -15.691406 24.535156 -15.441406 29.109375 -16.671875 C 33.015625 -17.722656 36.488281 -19.457031 39.53125 -21.875 C 42.582031 -24.289062 44.847656 -27.117188 46.328125 -30.359375 C 47.804688 -33.609375 48.109375 -36.867188 47.234375 -40.140625 Z M 47.234375 -40.140625 "></path></g></g></g><g fill="#545454" fill-opacity="1"><g transform="translate(444.267229, 219.790327)"><g><path d="M -6.984375 -76.28125 L 55.9375 -82.765625 L 57.046875 -72.109375 L 32 -69.53125 L 38.75 -4 L 25.921875 -2.671875 L 19.171875 -68.203125 L -5.875 -65.625 Z M -6.984375 -76.28125 "></path></g></g></g><g fill="#545454" fill-opacity="1"><g transform="translate(502.315336, 212.877323)"><g><path d="M 26.109375 -75.375 L 24.5625 -44.5625 L 42.78125 -43.65625 C 52.519531 -43.164062 59.6875 -40.554688 64.28125 -35.828125 C 68.875 -31.097656 71 -25.363281 70.65625 -18.625 C 70.457031 -14.675781 69.3125 -11.0625 67.21875 -7.78125 C 65.125 -4.507812 61.925781 -1.960938 57.625 -0.140625 C 53.332031 1.671875 47.71875 2.398438 40.78125 2.046875 L 9.390625 0.46875 L 13.234375 -76.03125 Z M 24.015625 -33.859375 L 22.796875 -9.578125 L 41.171875 -8.65625 C 47.046875 -8.363281 51.1875 -9.125 53.59375 -10.9375 C 56.007812 -12.75 57.320312 -15.773438 57.53125 -20.015625 C 57.9375 -28.109375 52.890625 -32.414062 42.390625 -32.9375 Z M 24.015625 -33.859375 "></path></g></g></g><g fill="#545454" fill-opacity="1"><g transform="translate(570.707254, 216.993793)"><g></g></g></g><g fill="#545454" fill-opacity="1"><g transform="translate(604.5578, 221.234844)"><g><path d="M 44.375 -66.28125 L 35.0625 -36.875 L 69.15625 -26.078125 L 78.46875 -55.484375 L 90.75 -51.59375 L 67.625 21.421875 L 55.34375 17.53125 L 65.921875 -15.859375 L 31.828125 -26.65625 L 21.25 6.734375 L 8.96875 2.84375 L 32.09375 -70.171875 Z M 44.375 -66.28125 "></path></g></g></g><g fill="#545454" fill-opacity="1"><g transform="translate(673.153737, 242.124813)"><g><path d="M 43.171875 -37.53125 L 32.65625 -43.046875 C 36.90625 -51.171875 42.503906 -55.617188 49.453125 -56.390625 C 56.398438 -57.171875 64.0625 -55.367188 72.4375 -50.984375 C 73.550781 -50.398438 75.054688 -49.472656 76.953125 -48.203125 C 78.847656 -46.929688 80.769531 -45.347656 82.71875 -43.453125 C 84.675781 -41.566406 86.363281 -39.378906 87.78125 -36.890625 C 89.207031 -34.410156 90 -31.65625 90.15625 -28.625 C 90.320312 -25.59375 89.484375 -22.328125 87.640625 -18.828125 L 67.375 19.90625 C 65.894531 22.726562 66.390625 24.785156 68.859375 26.078125 C 69.378906 26.347656 70.015625 26.597656 70.765625 26.828125 C 71.515625 27.054688 72.210938 27.289062 72.859375 27.53125 L 68.5 35.859375 C 67.414062 35.617188 66.328125 35.398438 65.234375 35.203125 C 64.140625 35.015625 62.945312 34.582031 61.65625 33.90625 C 58.332031 32.164062 56.101562 30.34375 54.96875 28.4375 C 53.84375 26.539062 53.394531 24.644531 53.625 22.75 C 53.851562 20.851562 54.328125 19.003906 55.046875 17.203125 C 52.796875 17.992188 50.148438 18.679688 47.109375 19.265625 C 44.078125 19.859375 40.707031 19.945312 37 19.53125 C 33.300781 19.113281 29.226562 17.738281 24.78125 15.40625 C 18.539062 12.144531 14.390625 7.691406 12.328125 2.046875 C 10.273438 -3.597656 10.796875 -9.375 13.890625 -15.28125 C 14.960938 -17.332031 16.359375 -19.378906 18.078125 -21.421875 C 19.796875 -23.460938 22.054688 -25.132812 24.859375 -26.4375 C 27.671875 -27.75 31.210938 -28.269531 35.484375 -28 C 39.753906 -27.726562 45 -26.238281 51.21875 -23.53125 C 57.46875 -20.90625 62.070312 -19.195312 65.03125 -18.40625 C 67.988281 -17.613281 70.164062 -17.671875 71.5625 -18.578125 C 72.96875 -19.484375 74.273438 -21.085938 75.484375 -23.390625 C 79.296875 -30.660156 75.941406 -37.050781 65.421875 -42.5625 C 61.148438 -44.789062 57.566406 -45.738281 54.671875 -45.40625 C 51.773438 -45.070312 49.421875 -44.066406 47.609375 -42.390625 C 45.804688 -40.722656 44.328125 -39.101562 43.171875 -37.53125 Z M 61.9375 2.5 L 67.765625 -8.65625 C 66.929688 -8.53125 65.847656 -8.546875 64.515625 -8.703125 C 63.191406 -8.867188 61.164062 -9.363281 58.4375 -10.1875 C 55.71875 -11.007812 51.84375 -12.351562 46.8125 -14.21875 C 44.800781 -14.945312 42.507812 -15.601562 39.9375 -16.1875 C 37.363281 -16.78125 34.859375 -16.785156 32.421875 -16.203125 C 29.992188 -15.617188 28.019531 -13.867188 26.5 -10.953125 C 24.570312 -7.285156 24.078125 -3.847656 25.015625 -0.640625 C 25.953125 2.566406 28.515625 5.269531 32.703125 7.46875 C 36.296875 9.34375 40.03125 10.425781 43.90625 10.71875 C 47.78125 11.007812 51.359375 10.460938 54.640625 9.078125 C 57.929688 7.691406 60.363281 5.5 61.9375 2.5 Z M 61.9375 2.5 "></path></g></g></g><g fill="#545454" fill-opacity="1"><g transform="translate(738.763277, 277.485394)"><g></g></g></g><g fill="#545454" fill-opacity="1"><g transform="translate(767.680915, 296.17098)"><g><path d="M 68.046875 -41.625 L 45.625 -17 L 92.34375 -19.515625 L 104.453125 -8.5 L 63.625 -7.078125 L 54.171875 49.328125 L 42.8125 38.984375 L 50.828125 -6.59375 L 35.96875 -6.390625 L 16.484375 15.015625 L 6.953125 6.328125 L 58.515625 -50.3125 Z M 68.046875 -41.625 "></path></g></g></g><g fill="#545454" fill-opacity="1"><g transform="translate(816.735903, 339.437814)"><g><path d="M 54.796875 -16.4375 L 47.484375 -25.78125 C 54.703125 -31.425781 61.632812 -33.171875 68.28125 -31.015625 C 74.9375 -28.867188 81.179688 -24.070312 87.015625 -16.625 C 87.785156 -15.632812 88.769531 -14.171875 89.96875 -12.234375 C 91.175781 -10.296875 92.28125 -8.0625 93.28125 -5.53125 C 94.28125 -3.007812 94.914062 -0.320312 95.1875 2.53125 C 95.46875 5.382812 95.054688 8.222656 93.953125 11.046875 C 92.847656 13.867188 90.738281 16.503906 87.625 18.953125 L 53.203125 45.890625 C 50.691406 47.859375 50.296875 49.941406 52.015625 52.140625 C 52.367188 52.597656 52.84375 53.082031 53.4375 53.59375 C 54.03125 54.113281 54.570312 54.609375 55.0625 55.078125 L 47.65625 60.875 C 46.769531 60.21875 45.863281 59.570312 44.9375 58.9375 C 44.019531 58.3125 43.113281 57.429688 42.21875 56.296875 C 39.90625 53.335938 38.625 50.757812 38.375 48.5625 C 38.125 46.363281 38.492188 44.445312 39.484375 42.8125 C 40.472656 41.175781 41.671875 39.6875 43.078125 38.34375 C 40.703125 38.125 38.003906 37.660156 34.984375 36.953125 C 31.972656 36.242188 28.867188 34.9375 25.671875 33.03125 C 22.472656 31.132812 19.328125 28.207031 16.234375 24.25 C 11.890625 18.707031 9.941406 12.9375 10.390625 6.9375 C 10.847656 0.945312 13.703125 -4.097656 18.953125 -8.203125 C 20.773438 -9.628906 22.890625 -10.914062 25.296875 -12.0625 C 27.703125 -13.21875 30.453125 -13.8125 33.546875 -13.84375 C 36.648438 -13.882812 40.09375 -12.898438 43.875 -10.890625 C 47.65625 -8.890625 51.8125 -5.378906 56.34375 -0.359375 C 60.976562 4.597656 64.476562 8.046875 66.84375 9.984375 C 69.21875 11.929688 71.226562 12.785156 72.875 12.546875 C 74.519531 12.304688 76.367188 11.382812 78.421875 9.78125 C 84.878906 4.71875 84.453125 -2.488281 77.140625 -11.84375 C 74.160156 -15.632812 71.28125 -17.972656 68.5 -18.859375 C 65.726562 -19.753906 63.175781 -19.8125 60.84375 -19.03125 C 58.507812 -18.25 56.492188 -17.382812 54.796875 -16.4375 Z M 55.40625 27.796875 L 65.3125 20.03125 C 64.507812 19.800781 63.535156 19.335938 62.390625 18.640625 C 61.242188 17.953125 59.597656 16.664062 57.453125 14.78125 C 55.304688 12.90625 52.328125 10.085938 48.515625 6.328125 C 46.984375 4.835938 45.164062 3.289062 43.0625 1.6875 C 40.957031 0.0820312 38.675781 -0.945312 36.21875 -1.40625 C 33.757812 -1.875 31.238281 -1.097656 28.65625 0.921875 C 25.382812 3.484375 23.515625 6.414062 23.046875 9.71875 C 22.585938 13.03125 23.816406 16.550781 26.734375 20.28125 C 29.222656 23.46875 32.171875 25.988281 35.578125 27.84375 C 38.992188 29.707031 42.484375 30.6875 46.046875 30.78125 C 49.617188 30.875 52.738281 29.878906 55.40625 27.796875 Z M 55.40625 27.796875 "></path></g></g></g><g fill="#545454" fill-opacity="1"><g transform="translate(862.042688, 396.063833)"><g><path d="M 79.625 6.796875 C 77.269531 2.359375 74.550781 -0.65625 71.46875 -2.25 C 68.394531 -3.84375 65.1875 -4.488281 61.84375 -4.1875 C 58.507812 -3.894531 55.332031 -3.140625 52.3125 -1.921875 C 49.300781 -0.703125 46.6875 0.492188 44.46875 1.671875 C 39.601562 4.242188 35.539062 7.238281 32.28125 10.65625 C 29.019531 14.082031 26.945312 17.75 26.0625 21.65625 C 25.175781 25.5625 25.820312 29.566406 28 33.671875 C 28.9375 35.453125 30.3125 37.171875 32.125 38.828125 C 33.945312 40.492188 36.207031 41.8125 38.90625 42.78125 C 41.613281 43.757812 44.738281 44.046875 48.28125 43.640625 C 51.832031 43.234375 55.867188 41.832031 60.390625 39.4375 C 63.203125 37.945312 66.171875 36.179688 69.296875 34.140625 C 72.421875 32.097656 75.148438 29.71875 77.484375 27 C 79.816406 24.289062 81.296875 21.269531 81.921875 17.9375 C 82.554688 14.601562 81.789062 10.890625 79.625 6.796875 Z M -22.328125 22.484375 L 72.078125 -27.5625 L 77.703125 -16.953125 L 68.109375 -11.859375 C 70.660156 -11.578125 73.253906 -11.066406 75.890625 -10.328125 C 78.523438 -9.585938 81.09375 -8.242188 83.59375 -6.296875 C 86.101562 -4.347656 88.398438 -1.410156 90.484375 2.515625 C 93.640625 8.484375 94.832031 14.347656 94.0625 20.109375 C 93.300781 25.867188 90.957031 31.179688 87.03125 36.046875 C 83.101562 40.910156 77.941406 45.035156 71.546875 48.421875 C 67.546875 50.546875 63.097656 52.300781 58.203125 53.6875 C 53.316406 55.082031 48.398438 55.695312 43.453125 55.53125 C 38.503906 55.375 33.828125 54.03125 29.421875 51.5 C 25.023438 48.96875 21.289062 44.804688 18.21875 39.015625 C 15.820312 34.492188 14.78125 30.207031 15.09375 26.15625 C 15.414062 22.113281 16.503906 18.5625 18.359375 15.5 L -16.296875 33.875 Z M -22.328125 22.484375 "></path></g></g></g><g fill="#545454" fill-opacity="1"><g transform="translate(896.499471, 461.005901)"><g><path d="M 72.8125 -23.78125 L 93.140625 36.125 L 82.984375 39.5625 L 74.890625 15.71875 L 12.515625 36.890625 L 8.375 24.6875 L 70.75 3.515625 L 62.65625 -20.34375 Z M 72.8125 -23.78125 "></path></g></g></g><g fill="#545454" fill-opacity="1"><g transform="translate(916.314785, 515.749254)"><g><path d="M 33.890625 55.921875 L 36.0625 68.609375 C 33 68.453125 29.84375 67.890625 26.59375 66.921875 C 23.351562 65.953125 20.226562 64.398438 17.21875 62.265625 C 14.21875 60.140625 11.582031 57.1875 9.3125 53.40625 C 7.050781 49.625 5.429688 44.832031 4.453125 39.03125 C 3.242188 31.988281 3.851562 25.691406 6.28125 20.140625 C 8.71875 14.585938 12.5625 9.992188 17.8125 6.359375 C 23.070312 2.722656 29.320312 0.289062 36.5625 -0.9375 C 44.457031 -2.28125 51.785156 -2.207031 58.546875 -0.71875 C 65.316406 0.769531 71.007812 3.863281 75.625 8.5625 C 80.238281 13.257812 83.253906 19.75 84.671875 28.03125 C 85.898438 35.257812 85.09375 41.585938 82.25 47.015625 C 79.40625 52.441406 74.90625 56.898438 68.75 60.390625 C 62.59375 63.890625 55.039062 66.398438 46.09375 67.921875 L 36.734375 12.984375 C 28.929688 14.316406 23.175781 17.179688 19.46875 21.578125 C 15.757812 25.984375 14.519531 31.804688 15.75 39.046875 C 16.425781 43.035156 17.867188 46.332031 20.078125 48.9375 C 22.285156 51.550781 24.6875 53.441406 27.28125 54.609375 C 29.882812 55.785156 32.085938 56.222656 33.890625 55.921875 Z M 46.859375 11.265625 L 54 53.21875 C 57.863281 52.363281 61.390625 50.953125 64.578125 48.984375 C 67.773438 47.023438 70.1875 44.363281 71.8125 41 C 73.445312 37.632812 73.816406 33.335938 72.921875 28.109375 C 72.273438 24.304688 70.613281 21.015625 67.9375 18.234375 C 65.257812 15.460938 62.050781 13.441406 58.3125 12.171875 C 54.570312 10.898438 50.753906 10.597656 46.859375 11.265625 Z M 46.859375 11.265625 "></path></g></g></g></g></g></g><g clip-path="url(#9b76adf2ec)"><g transform="matrix(1, 0, 0, 1, 0, 625)"><g clip-path="url(#0adad26aca)"><g fill="#545454" fill-opacity="1"><g transform="translate(1010.605724, 196.132025)"><g><path d="M 62.140625 45.75 L 31.96875 99.375 L -34.78125 61.828125 L -28.46875 50.609375 L 28.953125 82.90625 L 46.484375 51.734375 L -10.9375 19.4375 L -4.609375 8.203125 Z M 62.140625 45.75 "></path></g></g></g><g fill="#545454" fill-opacity="1"><g transform="translate(976.162516, 259.02601)"><g><path d="M 26.328125 28.390625 C 30.128906 31.515625 33.429688 35.128906 36.234375 39.234375 C 39.035156 43.347656 41.03125 47.765625 42.21875 52.484375 C 43.40625 57.210938 43.460938 62.046875 42.390625 66.984375 C 41.328125 71.921875 38.867188 76.742188 35.015625 81.453125 C 31.148438 86.148438 26.898438 89.492188 22.265625 91.484375 C 17.628906 93.472656 12.878906 94.34375 8.015625 94.09375 C 3.148438 93.84375 -1.566406 92.742188 -6.140625 90.796875 C -10.722656 88.847656 -14.914062 86.3125 -18.71875 83.1875 C -22.519531 80.0625 -25.816406 76.441406 -28.609375 72.328125 C -31.410156 68.210938 -33.421875 63.78125 -34.640625 59.03125 C -35.867188 54.28125 -35.953125 49.4375 -34.890625 44.5 C -33.828125 39.570312 -31.363281 34.757812 -27.5 30.0625 C -23.644531 25.351562 -19.394531 22 -14.75 20 C -10.113281 18.007812 -5.34375 17.148438 -0.4375 17.421875 C 4.457031 17.703125 9.191406 18.816406 13.765625 20.765625 C 18.335938 22.722656 22.523438 25.265625 26.328125 28.390625 Z M 17.96875 38.5625 C 15.945312 36.90625 13.453125 35.257812 10.484375 33.625 C 7.515625 32 4.3125 30.804688 0.875 30.046875 C -2.550781 29.285156 -5.96875 29.378906 -9.375 30.328125 C -12.789062 31.273438 -15.96875 33.539062 -18.90625 37.125 C -21.851562 40.695312 -23.457031 44.242188 -23.71875 47.765625 C -23.976562 51.296875 -23.40625 54.671875 -22 57.890625 C -20.59375 61.117188 -18.804688 64.03125 -16.640625 66.625 C -14.472656 69.226562 -12.378906 71.359375 -10.359375 73.015625 C -8.347656 74.671875 -5.875 76.296875 -2.9375 77.890625 C 0 79.492188 3.1875 80.675781 6.625 81.4375 C 10.0625 82.195312 13.476562 82.101562 16.875 81.15625 C 20.28125 80.207031 23.457031 77.945312 26.40625 74.375 C 29.34375 70.789062 30.945312 67.234375 31.21875 63.703125 C 31.488281 60.179688 30.914062 56.804688 29.5 53.578125 C 28.09375 50.359375 26.320312 47.460938 24.1875 44.890625 C 22.050781 42.328125 19.976562 40.21875 17.96875 38.5625 Z M 17.96875 38.5625 "></path></g></g></g><g fill="#545454" fill-opacity="1"><g transform="translate(930.09279, 315.676458)"><g><path d="M 33.34375 72.46875 L 11.53125 47.3125 L 8.515625 94 L -3.84375 104.71875 L -0.453125 64.015625 L -55.34375 48 L -43.75 37.9375 L 0.5625 51.25 L 2.125 36.484375 L -16.84375 14.609375 L -7.109375 6.15625 L 43.078125 64.015625 Z M 33.34375 72.46875 "></path></g></g></g><g fill="#545454" fill-opacity="1"><g transform="translate(881.345826, 359.28203)"><g><path d="M 9.859375 56.359375 L 20.015625 50.1875 C 24.773438 58.019531 25.695312 65.109375 22.78125 71.453125 C 19.863281 77.804688 14.363281 83.4375 6.28125 88.34375 C 5.207031 89 3.632812 89.8125 1.5625 90.78125 C -0.496094 91.75 -2.84375 92.582031 -5.46875 93.28125 C -8.101562 93.988281 -10.847656 94.304688 -13.703125 94.234375 C -16.554688 94.171875 -19.320312 93.425781 -22 92 C -24.6875 90.570312 -27.054688 88.164062 -29.109375 84.78125 L -51.828125 47.421875 C -53.484375 44.703125 -55.503906 44.070312 -57.890625 45.53125 C -58.390625 45.832031 -58.925781 46.242188 -59.5 46.765625 C -60.082031 47.285156 -60.640625 47.757812 -61.171875 48.1875 L -66.0625 40.15625 C -65.3125 39.351562 -64.566406 38.53125 -63.828125 37.6875 C -63.085938 36.851562 -62.101562 36.0625 -60.875 35.3125 C -57.65625 33.363281 -54.941406 32.394531 -52.734375 32.40625 C -50.523438 32.414062 -48.664062 33.007812 -47.15625 34.1875 C -45.65625 35.363281 -44.316406 36.722656 -43.140625 38.265625 C -42.648438 35.929688 -41.875 33.3125 -40.8125 30.40625 C -39.757812 27.5 -38.097656 24.566406 -35.828125 21.609375 C -33.554688 18.648438 -30.273438 15.863281 -25.984375 13.25 C -19.960938 9.59375 -14.003906 8.34375 -8.109375 9.5 C -2.210938 10.65625 2.460938 14.082031 5.921875 19.78125 C 7.128906 21.757812 8.160156 24.007812 9.015625 26.53125 C 9.867188 29.0625 10.128906 31.867188 9.796875 34.953125 C 9.472656 38.035156 8.09375 41.332031 5.65625 44.84375 C 3.226562 48.363281 -0.742188 52.082031 -6.265625 56 C -11.742188 60.019531 -15.582031 63.09375 -17.78125 65.21875 C -19.988281 67.34375 -21.066406 69.234375 -21.015625 70.890625 C -20.972656 72.554688 -20.273438 74.503906 -18.921875 76.734375 C -14.660156 83.742188 -7.457031 84.164062 2.6875 78 C 6.8125 75.488281 9.476562 72.90625 10.6875 70.25 C 11.894531 67.601562 12.242188 65.070312 11.734375 62.65625 C 11.234375 60.25 10.609375 58.148438 9.859375 56.359375 Z M -34.109375 51.75 L -27.5625 62.515625 C -27.25 61.742188 -26.679688 60.828125 -25.859375 59.765625 C -25.035156 58.703125 -23.566406 57.21875 -21.453125 55.3125 C -19.335938 53.40625 -16.179688 50.78125 -11.984375 47.4375 C -10.328125 46.09375 -8.578125 44.46875 -6.734375 42.5625 C -4.898438 40.65625 -3.609375 38.507812 -2.859375 36.125 C -2.109375 33.738281 -2.585938 31.144531 -4.296875 28.34375 C -6.441406 24.800781 -9.128906 22.601562 -12.359375 21.75 C -15.597656 20.894531 -19.238281 21.691406 -23.28125 24.140625 C -26.738281 26.242188 -29.59375 28.878906 -31.84375 32.046875 C -34.09375 35.222656 -35.472656 38.578125 -35.984375 42.109375 C -36.492188 45.640625 -35.867188 48.851562 -34.109375 51.75 Z M -34.109375 51.75 "></path></g></g></g><g fill="#545454" fill-opacity="1"><g transform="translate(819.22517, 397.461099)"><g><path d="M 2.890625 57.765625 L 14.3125 53.21875 C 14.96875 55.644531 15.269531 58.347656 15.21875 61.328125 C 15.164062 64.316406 14.515625 67.382812 13.265625 70.53125 C 12.015625 73.675781 9.953125 76.65625 7.078125 79.46875 C 4.203125 82.28125 0.292969 84.664062 -4.640625 86.625 C -10.023438 88.769531 -15.09375 89.742188 -19.84375 89.546875 C -24.59375 89.359375 -28.703125 88.160156 -32.171875 85.953125 C -35.640625 83.753906 -38.125 80.773438 -39.625 77.015625 C -41.476562 72.347656 -41.582031 68.234375 -39.9375 64.671875 C -38.289062 61.109375 -36.144531 58.332031 -33.5 56.34375 C -35.945312 56.476562 -38.566406 56.296875 -41.359375 55.796875 C -44.160156 55.304688 -46.828125 54.160156 -49.359375 52.359375 C -51.890625 50.566406 -53.957031 47.648438 -55.5625 43.609375 C -57.3125 39.222656 -57.515625 34.992188 -56.171875 30.921875 C -54.828125 26.859375 -52.320312 23.160156 -48.65625 19.828125 C -45 16.503906 -40.566406 13.804688 -35.359375 11.734375 C -27.554688 8.628906 -21.046875 7.363281 -15.828125 7.9375 C -10.617188 8.519531 -6.351562 10.304688 -3.03125 13.296875 C 0.277344 16.285156 3 19.796875 5.125 23.828125 L -6.578125 28.484375 C -9.078125 23.773438 -12.175781 20.878906 -15.875 19.796875 C -19.582031 18.722656 -24.53125 19.414062 -30.71875 21.875 C -35.113281 23.625 -38.59375 26.101562 -41.15625 29.3125 C -43.726562 32.519531 -44.191406 36.179688 -42.546875 40.296875 C -40.867188 44.515625 -38.207031 46.960938 -34.5625 47.640625 C -30.925781 48.328125 -26.910156 47.796875 -22.515625 46.046875 L -15.390625 43.203125 L -11.640625 52.625 L -18.078125 55.1875 C -23.285156 57.257812 -26.5 59.628906 -27.71875 62.296875 C -28.9375 64.960938 -28.832031 68.09375 -27.40625 71.6875 C -26.363281 74.28125 -24.800781 76.046875 -22.71875 76.984375 C -20.644531 77.921875 -18.359375 78.253906 -15.859375 77.984375 C -13.367188 77.722656 -11.003906 77.144531 -8.765625 76.25 C -3.742188 74.25 -0.335938 71.773438 1.453125 68.828125 C 3.242188 65.890625 3.722656 62.203125 2.890625 57.765625 Z M 2.890625 57.765625 "></path></g></g></g><g fill="#545454" fill-opacity="1"><g transform="translate(759.47807, 422.361474)"><g><path d="M -9.203125 56.46875 L 2.40625 53.96875 C 4.332031 62.925781 2.878906 69.925781 -1.953125 74.96875 C -6.796875 80.019531 -13.84375 83.535156 -23.09375 85.515625 C -24.332031 85.785156 -26.082031 86.035156 -28.34375 86.265625 C -30.613281 86.503906 -33.101562 86.519531 -35.8125 86.3125 C -38.53125 86.101562 -41.226562 85.5 -43.90625 84.5 C -46.582031 83.5 -48.953125 81.882812 -51.015625 79.65625 C -53.085938 77.425781 -54.535156 74.375 -55.359375 70.5 L -64.53125 27.765625 C -65.195312 24.640625 -66.894531 23.375 -69.625 23.96875 C -70.195312 24.082031 -70.84375 24.289062 -71.5625 24.59375 C -72.289062 24.90625 -72.976562 25.179688 -73.625 25.421875 L -75.59375 16.21875 C -74.613281 15.71875 -73.640625 15.1875 -72.671875 14.625 C -71.710938 14.070312 -70.523438 13.644531 -69.109375 13.34375 C -65.429688 12.550781 -62.550781 12.523438 -60.46875 13.265625 C -58.382812 14.003906 -56.820312 15.175781 -55.78125 16.78125 C -54.75 18.382812 -53.929688 20.109375 -53.328125 21.953125 C -52.097656 19.910156 -50.503906 17.691406 -48.546875 15.296875 C -46.585938 12.898438 -44.050781 10.675781 -40.9375 8.625 C -37.820312 6.582031 -33.8125 5.035156 -28.90625 3.984375 C -22.019531 2.503906 -15.984375 3.28125 -10.796875 6.3125 C -5.609375 9.34375 -2.316406 14.117188 -0.921875 20.640625 C -0.429688 22.898438 -0.191406 25.359375 -0.203125 28.015625 C -0.222656 30.679688 -0.894531 33.414062 -2.21875 36.21875 C -3.539062 39.03125 -5.929688 41.695312 -9.390625 44.21875 C -12.847656 46.738281 -17.828125 48.941406 -24.328125 50.828125 C -30.816406 52.816406 -35.453125 54.453125 -38.234375 55.734375 C -41.015625 57.015625 -42.65625 58.445312 -43.15625 60.03125 C -43.65625 61.625 -43.632812 63.695312 -43.09375 66.25 C -41.363281 74.269531 -34.695312 77.035156 -23.09375 74.546875 C -18.375 73.535156 -15.003906 71.972656 -12.984375 69.859375 C -10.972656 67.753906 -9.8125 65.484375 -9.5 63.046875 C -9.1875 60.609375 -9.085938 58.414062 -9.203125 56.46875 Z M -49.21875 37.65625 L -46.578125 49.96875 C -46.023438 49.351562 -45.179688 48.675781 -44.046875 47.9375 C -42.921875 47.207031 -41.046875 46.289062 -38.421875 45.1875 C -35.804688 44.082031 -31.96875 42.640625 -26.90625 40.859375 C -24.894531 40.140625 -22.707031 39.179688 -20.34375 37.984375 C -17.988281 36.796875 -16.066406 35.195312 -14.578125 33.1875 C -13.085938 31.1875 -12.6875 28.582031 -13.375 25.375 C -14.238281 21.320312 -16.054688 18.359375 -18.828125 16.484375 C -21.597656 14.609375 -25.296875 14.171875 -29.921875 15.171875 C -33.878906 16.015625 -37.441406 17.5625 -40.609375 19.8125 C -43.773438 22.070312 -46.175781 24.78125 -47.8125 27.9375 C -49.457031 31.101562 -49.925781 34.34375 -49.21875 37.65625 Z M -49.21875 37.65625 "></path></g></g></g><g fill="#545454" fill-opacity="1"><g transform="translate(687.867013, 437.756767)"><g><path d="M 3.0625 76.53125 L -60.125 79.78125 L -60.671875 69.078125 L -35.515625 67.78125 L -38.90625 2 L -26.03125 1.34375 L -22.640625 67.125 L 2.515625 65.828125 Z M 3.0625 76.53125 "></path></g></g></g><g fill="#545454" fill-opacity="1"><g transform="translate(629.540975, 441.685654)"><g><path d="M -29.953125 73.9375 L -26.828125 43.25 L -44.96875 41.40625 C -54.664062 40.414062 -61.6875 37.441406 -66.03125 32.484375 C -70.375 27.523438 -72.207031 21.691406 -71.53125 14.984375 C -71.125 11.046875 -69.785156 7.492188 -67.515625 4.328125 C -65.253906 1.160156 -61.929688 -1.210938 -57.546875 -2.796875 C -53.171875 -4.390625 -47.53125 -4.835938 -40.625 -4.140625 L -9.359375 -0.953125 L -17.125 75.25 Z M -25.734375 32.578125 L -23.265625 8.390625 L -41.5625 6.53125 C -47.414062 5.9375 -51.59375 6.484375 -54.09375 8.171875 C -56.59375 9.859375 -58.054688 12.8125 -58.484375 17.03125 C -59.304688 25.09375 -54.488281 29.65625 -44.03125 30.71875 Z M -25.734375 32.578125 "></path></g></g></g><g fill="#545454" fill-opacity="1"><g transform="translate(561.449879, 434.069402)"><g></g></g></g><g fill="#545454" fill-opacity="1"><g transform="translate(527.861154, 428.09895)"><g><path d="M -47.71875 63.921875 L -36.90625 35.03125 L -70.40625 22.5 L -81.21875 51.390625 L -93.28125 46.875 L -66.4375 -24.859375 L -54.375 -20.34375 L -66.65625 12.46875 L -33.15625 25 L -20.875 -7.8125 L -8.8125 -3.296875 L -35.65625 68.4375 Z M -47.71875 63.921875 "></path></g></g></g><g fill="#545454" fill-opacity="1"><g transform="translate(460.426015, 403.720741)"><g><path d="M -45.046875 35.28125 L -34.8125 41.3125 C -39.476562 49.207031 -45.300781 53.363281 -52.28125 53.78125 C -59.257812 54.207031 -66.816406 52.015625 -74.953125 47.203125 C -76.046875 46.554688 -77.503906 45.550781 -79.328125 44.1875 C -81.148438 42.832031 -82.988281 41.160156 -84.84375 39.171875 C -86.695312 37.179688 -88.269531 34.910156 -89.5625 32.359375 C -90.851562 29.804688 -91.5 27.007812 -91.5 23.96875 C -91.507812 20.9375 -90.507812 17.71875 -88.5 14.3125 L -66.265625 -23.328125 C -64.640625 -26.078125 -65.03125 -28.160156 -67.4375 -29.578125 C -67.9375 -29.878906 -68.554688 -30.160156 -69.296875 -30.421875 C -70.035156 -30.679688 -70.71875 -30.945312 -71.34375 -31.21875 L -66.5625 -39.3125 C -65.507812 -39.019531 -64.4375 -38.75 -63.34375 -38.5 C -62.257812 -38.257812 -61.09375 -37.769531 -59.84375 -37.03125 C -56.601562 -35.113281 -54.46875 -33.175781 -53.4375 -31.21875 C -52.414062 -29.269531 -52.066406 -27.351562 -52.390625 -25.46875 C -52.722656 -23.59375 -53.289062 -21.769531 -54.09375 -20 C -51.800781 -20.664062 -49.125 -21.21875 -46.0625 -21.65625 C -43 -22.09375 -39.625 -22.007812 -35.9375 -21.40625 C -32.257812 -20.800781 -28.257812 -19.222656 -23.9375 -16.671875 C -17.875 -13.085938 -13.960938 -8.421875 -12.203125 -2.671875 C -10.453125 3.066406 -11.269531 8.804688 -14.65625 14.546875 C -15.832031 16.535156 -17.332031 18.503906 -19.15625 20.453125 C -20.976562 22.410156 -23.320312 23.96875 -26.1875 25.125 C -29.0625 26.289062 -32.625 26.628906 -36.875 26.140625 C -41.132812 25.648438 -46.289062 23.894531 -52.34375 20.875 C -58.457031 17.945312 -62.972656 16.007812 -65.890625 15.0625 C -68.804688 14.125 -70.988281 14.066406 -72.4375 14.890625 C -73.882812 15.710938 -75.269531 17.242188 -76.59375 19.484375 C -80.769531 26.554688 -77.742188 33.113281 -67.515625 39.15625 C -63.359375 41.613281 -59.828125 42.75 -56.921875 42.5625 C -54.015625 42.375 -51.613281 41.488281 -49.71875 39.90625 C -47.832031 38.320312 -46.273438 36.78125 -45.046875 35.28125 Z M -61.71875 -5.6875 L -68.125 5.15625 C -67.289062 5.082031 -66.210938 5.160156 -64.890625 5.390625 C -63.566406 5.617188 -61.566406 6.210938 -58.890625 7.171875 C -56.210938 8.140625 -52.414062 9.679688 -47.5 11.796875 C -45.519531 12.628906 -43.253906 13.40625 -40.703125 14.125 C -38.160156 14.851562 -35.660156 14.984375 -33.203125 14.515625 C -30.742188 14.054688 -28.679688 12.410156 -27.015625 9.578125 C -24.910156 6.015625 -24.242188 2.609375 -25.015625 -0.640625 C -25.785156 -3.898438 -28.203125 -6.734375 -32.265625 -9.140625 C -35.753906 -11.203125 -39.425781 -12.472656 -43.28125 -12.953125 C -47.144531 -13.441406 -50.753906 -13.082031 -54.109375 -11.875 C -57.460938 -10.664062 -60 -8.601562 -61.71875 -5.6875 Z M -61.71875 -5.6875 "></path></g></g></g><g fill="#545454" fill-opacity="1"><g transform="translate(396.71497, 365.044098)"><g></g></g></g><g fill="#545454" fill-opacity="1"><g transform="translate(368.793032, 344.900937)"><g><path d="M -70.09375 38.09375 L -46.453125 14.65625 L -93.21875 14.75 L -104.734375 3.125 L -63.90625 3.796875 L -51.578125 -52.03125 L -40.765625 -41.125 L -51.109375 3.96875 L -36.265625 4.5625 L -15.703125 -15.828125 L -6.625 -6.6875 L -61.015625 47.234375 Z M -70.09375 38.09375 "></path></g></g></g><g fill="#545454" fill-opacity="1"><g transform="translate(322.020187, 299.17689)"><g><path d="M -55.5625 13.59375 L -48.734375 23.296875 C -56.234375 28.566406 -63.25 29.957031 -69.78125 27.46875 C -76.320312 24.988281 -82.3125 19.878906 -87.75 12.140625 C -88.476562 11.109375 -89.390625 9.59375 -90.484375 7.59375 C -91.585938 5.601562 -92.570312 3.316406 -93.4375 0.734375 C -94.3125 -1.835938 -94.8125 -4.550781 -94.9375 -7.40625 C -95.0625 -10.257812 -94.5 -13.066406 -93.25 -15.828125 C -92.007812 -18.597656 -89.769531 -21.125 -86.53125 -23.40625 L -50.765625 -48.546875 C -48.160156 -50.378906 -47.660156 -52.441406 -49.265625 -54.734375 C -49.597656 -55.203125 -50.046875 -55.707031 -50.609375 -56.25 C -51.179688 -56.800781 -51.695312 -57.332031 -52.15625 -57.84375 L -44.46875 -63.25 C -43.613281 -62.539062 -42.742188 -61.847656 -41.859375 -61.171875 C -40.972656 -60.492188 -40.113281 -59.566406 -39.28125 -58.390625 C -37.113281 -55.304688 -35.960938 -52.660156 -35.828125 -50.453125 C -35.703125 -48.253906 -36.175781 -46.363281 -37.25 -44.78125 C -38.320312 -43.207031 -39.585938 -41.785156 -41.046875 -40.515625 C -38.691406 -40.179688 -36.023438 -39.578125 -33.046875 -38.703125 C -30.078125 -37.835938 -27.039062 -36.367188 -23.9375 -34.296875 C -20.832031 -32.234375 -17.835938 -29.148438 -14.953125 -25.046875 C -10.898438 -19.285156 -9.253906 -13.421875 -10.015625 -7.453125 C -10.785156 -1.492188 -13.894531 3.398438 -19.34375 7.234375 C -21.238281 8.554688 -23.414062 9.726562 -25.875 10.75 C -28.34375 11.78125 -31.125 12.234375 -34.21875 12.109375 C -37.320312 11.992188 -40.707031 10.832031 -44.375 8.625 C -48.050781 6.425781 -52.023438 2.707031 -56.296875 -2.53125 C -60.660156 -7.726562 -63.976562 -11.351562 -66.25 -13.40625 C -68.519531 -15.46875 -70.484375 -16.414062 -72.140625 -16.25 C -73.796875 -16.09375 -75.691406 -15.265625 -77.828125 -13.765625 C -84.535156 -9.046875 -84.472656 -1.832031 -77.640625 7.875 C -74.867188 11.820312 -72.117188 14.3125 -69.390625 15.34375 C -66.660156 16.375 -64.109375 16.554688 -61.734375 15.890625 C -59.367188 15.234375 -57.3125 14.46875 -55.5625 13.59375 Z M -53.90625 -30.59375 L -64.21875 -23.34375 C -63.414062 -23.070312 -62.457031 -22.5625 -61.34375 -21.8125 C -60.238281 -21.0625 -58.664062 -19.695312 -56.625 -17.71875 C -54.582031 -15.738281 -51.75 -12.769531 -48.125 -8.8125 C -46.664062 -7.238281 -44.925781 -5.597656 -42.90625 -3.890625 C -40.894531 -2.179688 -38.671875 -1.03125 -36.234375 -0.4375 C -33.804688 0.144531 -31.253906 -0.503906 -28.578125 -2.390625 C -25.179688 -4.773438 -23.160156 -7.609375 -22.515625 -10.890625 C -21.878906 -14.171875 -22.921875 -17.742188 -25.640625 -21.609375 C -27.972656 -24.921875 -30.796875 -27.59375 -34.109375 -29.625 C -37.429688 -31.664062 -40.867188 -32.820312 -44.421875 -33.09375 C -47.984375 -33.363281 -51.144531 -32.53125 -53.90625 -30.59375 Z M -53.90625 -30.59375 "></path></g></g></g><g fill="#545454" fill-opacity="1"><g transform="translate(279.67507, 240.303183)"><g><path d="M -79.171875 -10.875 C -77.054688 -6.320312 -74.5 -3.171875 -71.5 -1.421875 C -68.507812 0.324219 -65.335938 1.140625 -61.984375 1.015625 C -58.628906 0.890625 -55.414062 0.300781 -52.34375 -0.75 C -49.28125 -1.8125 -46.609375 -2.875 -44.328125 -3.9375 C -39.347656 -6.257812 -35.132812 -9.046875 -31.6875 -12.296875 C -28.25 -15.554688 -25.988281 -19.113281 -24.90625 -22.96875 C -23.832031 -26.832031 -24.273438 -30.863281 -26.234375 -35.0625 C -27.085938 -36.894531 -28.375 -38.6875 -30.09375 -40.4375 C -31.820312 -42.1875 -34.007812 -43.613281 -36.65625 -44.71875 C -39.3125 -45.832031 -42.421875 -46.273438 -45.984375 -46.046875 C -49.554688 -45.828125 -53.660156 -44.640625 -58.296875 -42.484375 C -61.179688 -41.140625 -64.234375 -39.523438 -67.453125 -37.640625 C -70.679688 -35.765625 -73.53125 -33.53125 -76 -30.9375 C -78.46875 -28.351562 -80.101562 -25.410156 -80.90625 -22.109375 C -81.707031 -18.804688 -81.128906 -15.0625 -79.171875 -10.875 Z M 23.46875 -21.3125 L -73.390625 23.828125 L -78.46875 12.9375 L -68.625 8.34375 C -71.164062 7.925781 -73.734375 7.28125 -76.328125 6.40625 C -78.921875 5.539062 -81.414062 4.066406 -83.8125 1.984375 C -86.21875 -0.0859375 -88.359375 -3.132812 -90.234375 -7.15625 C -93.085938 -13.28125 -93.976562 -19.195312 -92.90625 -24.90625 C -91.84375 -30.625 -89.226562 -35.8125 -85.0625 -40.46875 C -80.894531 -45.125 -75.53125 -48.976562 -68.96875 -52.03125 C -64.863281 -53.945312 -60.332031 -55.472656 -55.375 -56.609375 C -50.414062 -57.742188 -45.46875 -58.101562 -40.53125 -57.6875 C -35.601562 -57.269531 -31.007812 -55.6875 -26.75 -52.9375 C -22.488281 -50.1875 -18.96875 -45.835938 -16.1875 -39.890625 C -14.03125 -35.253906 -13.210938 -30.925781 -13.734375 -26.90625 C -14.253906 -22.882812 -15.523438 -19.390625 -17.546875 -16.421875 L 18.015625 -32.984375 Z M 23.46875 -21.3125 "></path></g></g></g><g fill="#545454" fill-opacity="1"><g transform="translate(248.591803, 173.680534)"><g><path d="M -73.9375 20.015625 L -91.171875 -40.859375 L -80.859375 -43.765625 L -74 -19.53125 L -10.609375 -37.484375 L -7.09375 -25.078125 L -70.484375 -7.125 L -63.625 17.109375 Z M -73.9375 20.015625 "></path></g></g></g><g fill="#545454" fill-opacity="1"><g transform="translate(231.608253, 117.9934)"><g><path d="M -30.984375 -57.578125 L -32.5 -70.359375 C -29.445312 -70.046875 -26.320312 -69.320312 -23.125 -68.1875 C -19.925781 -67.0625 -16.882812 -65.351562 -14 -63.0625 C -11.113281 -60.78125 -8.632812 -57.695312 -6.5625 -53.8125 C -4.5 -49.925781 -3.125 -45.0625 -2.4375 -39.21875 C -1.601562 -32.113281 -2.539062 -25.847656 -5.25 -20.421875 C -7.96875 -15.003906 -12.039062 -10.617188 -17.46875 -7.265625 C -22.90625 -3.910156 -29.269531 -1.804688 -36.5625 -0.953125 C -44.519531 -0.00390625 -51.835938 -0.445312 -58.515625 -2.28125 C -65.191406 -4.113281 -70.710938 -7.492188 -75.078125 -12.421875 C -79.453125 -17.347656 -82.132812 -23.984375 -83.125 -32.328125 C -83.976562 -39.609375 -82.84375 -45.882812 -79.71875 -51.15625 C -76.601562 -56.4375 -71.878906 -60.664062 -65.546875 -63.84375 C -59.222656 -67.019531 -51.554688 -69.140625 -42.546875 -70.203125 L -36.015625 -14.859375 C -28.148438 -15.785156 -22.253906 -18.347656 -18.328125 -22.546875 C -14.398438 -26.753906 -12.863281 -32.503906 -13.71875 -39.796875 C -14.195312 -43.816406 -15.472656 -47.1875 -17.546875 -49.90625 C -19.617188 -52.625 -21.921875 -54.632812 -24.453125 -55.9375 C -26.992188 -57.238281 -29.171875 -57.785156 -30.984375 -57.578125 Z M -46.203125 -13.65625 L -51.1875 -55.921875 C -55.101562 -55.265625 -58.703125 -54.035156 -61.984375 -52.234375 C -65.273438 -50.441406 -67.816406 -47.90625 -69.609375 -44.625 C -71.410156 -41.351562 -72.003906 -37.078125 -71.390625 -31.796875 C -70.929688 -27.972656 -69.4375 -24.601562 -66.90625 -21.6875 C -64.382812 -18.78125 -61.285156 -16.597656 -57.609375 -15.140625 C -53.941406 -13.679688 -50.140625 -13.1875 -46.203125 -13.65625 Z M -46.203125 -13.65625 "></path></g></g></g></g></g></g></g></g></svg> 